<svg width="62" height="27" viewBox="0 0 62 27" fill="none" xmlns="http://www.w3.org/2000/svg">
<rect x="0.916443" width="60.1671" height="27" fill="black"/>
<path d="M46.452 15.4145C46.6683 15.6062 47.0189 15.6062 47.2352 15.4145L49.0028 13.8477C49.2191 13.656 49.2195 13.3448 49.0032 13.1531L47.2352 11.5859C47.0189 11.3942 46.6683 11.3942 46.452 11.5859C46.2357 11.7776 46.2357 12.0885 46.452 12.2802L47.2746 13.0093H39.8063C39.5004 13.0093 39.2525 13.2291 39.2525 13.5002C39.2525 13.7713 39.5004 13.9911 39.8063 13.9911H47.2746L46.452 14.7203C46.2357 14.912 46.2357 15.2228 46.452 15.4145Z" fill="white"/>
<path d="M14.9463 15.4145C14.73 15.6062 14.3793 15.6062 14.1631 15.4145L12.3955 13.8477C12.1792 13.656 12.1788 13.3448 12.3951 13.1531L14.1631 11.5859C14.3793 11.3942 14.73 11.3942 14.9463 11.5859C15.1625 11.7776 15.1625 12.0885 14.9463 12.2802L14.1237 13.0093H21.592C21.8979 13.0093 22.1458 13.2291 22.1458 13.5002C22.1458 13.7713 21.8979 13.9911 21.592 13.9911H14.1237L14.9463 14.7203C15.1625 14.912 15.1625 15.2228 14.9463 15.4145Z" fill="white"/>
</svg>
