<svg width="30" height="21" viewBox="0 0 30 21" fill="none" xmlns="http://www.w3.org/2000/svg">
<path d="M7.44859 0C3.88215 0 0.986328 2.89583 0.986328 6.49275C0.986328 9.87629 3.57733 12.6197 6.86943 12.9245C6.19882 14.1438 4.97952 15.4546 2.90672 16.7043C2.32755 17.0397 1.96176 17.6493 1.96176 18.2894C1.96176 19.6002 3.30299 20.5146 4.52228 19.966C8.05824 18.3809 13.9413 14.5096 13.9413 6.49275C13.9413 2.89583 11.0455 0 7.44859 0Z" fill="#E1DCE4"/>
<path d="M23.483 0C19.8861 0 16.9902 2.89583 16.9902 6.49275C16.9902 9.87629 19.5812 12.6197 22.8733 12.9245C22.2027 14.1438 20.9834 15.4546 18.9106 16.7043C18.3315 17.0397 17.9657 17.6493 17.9657 18.2894C17.9657 19.6002 19.3069 20.5146 20.5262 19.966C24.0317 18.3809 29.9148 14.5401 29.9148 6.49275C29.9452 2.89583 27.0494 0 23.483 0Z" fill="#E1DCE4"/>
</svg>
